<?xml version="1.0" encoding="UTF-8"?>
<svg xmlns="http://www.w3.org/2000/svg" id="Layer_2" data-name="Layer 2" viewBox="0 0 400 61.19">
  <defs>
    <style>
      .cls-1 {
        fill: #002e7f;
        fill-rule: evenodd;
      }
    </style>
  </defs>
  <g id="Layer_1-2" data-name="Layer 1">
    <g id="Layer_1-2" data-name="Layer 1-2">
      <g id="Brand_Logomark" data-name="Brand Logomark">
        <g id="Brand_Wordmark" data-name="Brand Wordmark">
          <path id="Brand_Wordmark_2" data-name="Brand Wordmark 2" class="cls-1" d="M124.24,11.63c0,2.68,2.34,4.84,5.22,4.84s5.22-2.16,5.22-4.84-2.34-4.84-5.22-4.84-5.22,2.16-5.22,4.84Zm9.64,38.06h-8.86V20.53h8.86v29.17Zm111.71-.22h8.94V9.46h-8.94V49.48Zm123.9,.5h-9.92l-9.08-11.99-4.38,4.26v7.74h-8.16V9.6h8.16v22.95l12.21-11.87h9.98l-12.09,11.77,13.29,17.53h-.02Zm17.75-30.09c7.02,0,11.49,2.72,11.49,2.72l-2.88,6.26c-9.36-4.9-13.57-1.44-13.57,.28,0,1.58,1.4,1.84,6.56,2.78,.5,.1,1.04,.2,1.62,.3,6.52,1.22,9.54,3.98,9.54,8.42s-3.78,9.36-12.97,9.36-13.39-3-13.39-3l2.8-6.22c7.22,4.62,15.39,3.14,15.39,.38,0-2.2-3.08-2.56-6.22-2.92-.8-.1-1.6-.18-2.34-.3-3.72-.6-9.26-2.62-9.26-8.42s6.24-9.64,13.25-9.64h-.02Zm-63.81,19.03c-1.34,2.3-3.78,3.84-6.58,3.84-4.24,0-7.68-3.54-7.68-7.92s3.44-7.92,7.68-7.92c2.92,0,5.48,1.7,6.76,4.18l6.9-4.1c-2.8-4.38-7.88-7.3-13.65-7.3-8.82,0-15.97,6.78-15.97,15.13s7.16,15.13,15.97,15.13c5.68,0,10.68-2.82,13.49-7.06l-6.94-4.02,.02,.02Zm-44.5-11.99c-4.24,0-7.68,3.54-7.68,7.92s3.44,7.92,7.68,7.92,7.68-3.54,7.68-7.92-3.44-7.92-7.68-7.92Zm0,23.07c-8.84,0-15.97-6.78-15.97-15.13s7.16-15.13,15.97-15.13,15.97,6.78,15.97,15.13-7.16,15.13-15.97,15.13Zm-55.73-22.89c2.54,0,4.4,.82,5.56,2.46,1.16,1.64,1.74,3.7,1.74,6.18,0,1.3-.22,2.58-.66,3.88-.44,1.3-1.2,2.4-2.26,3.28-1.06,.9-2.44,1.34-4.14,1.34-2.54,0-4.44-.78-5.7-2.32-1.26-1.56-1.9-3.48-1.9-5.76,0-6.04,2.46-9.06,7.34-9.06h.02Zm-6.98-2V11.57h-8.58V49.58h8.4v-3.54h.12c1.88,2.86,5.02,4.28,9.46,4.28,3.06,0,5.64-.7,7.7-2.08,2.06-1.4,3.6-3.24,4.56-5.56,.98-2.3,1.46-4.8,1.46-7.5,0-2.38-.36-4.5-1.08-6.32-.72-1.82-1.7-3.34-2.96-4.56-1.26-1.22-2.72-2.12-4.34-2.72-1.62-.6-3.36-.9-5.18-.9-4.1,0-7.24,1.46-9.46,4.4h-.12l.02,.02Zm-39.62,7.36c.82-3.52,3.22-6.2,7.54-6.2,5.44,0,6.88,5.3,6.94,6.2h-14.47Zm-8.1,3.16c0,7.44,5.58,14.43,16.05,14.43,6.78,0,10.06-2.24,12.49-4.7l-4.74-4.9s-2.68,3.04-7.68,3.04c-4.14,0-7.14-2.32-8.06-5.86h22.35s1.4-17.75-14.93-17.75c-11.29,0-15.49,8.28-15.49,15.71v.02Zm-16.07-15.07l.38,3.44v.2s3.14-4.98,9.64-4.2v8.14s-7.04-1.82-9.64,5.54v16.05h-8.44V20.53h8.08l-.02,.02Zm-62.91-8.84h27.57v7.3h-19.81v9.68h17.51v7.22h-17.51v13.81h-8.86V11.71h1.1Z"/>
        </g>
        <g id="Brand_Brandmark" data-name="Brand Brandmark">
          <path id="Brand_Brandmark_2" data-name="Brand Brandmark 2" class="cls-1" d="M1.36,61.19c-.76,0-1.36-.6-1.36-1.36V1.36C0,.6,.6,0,1.36,0H59.83c.76,0,1.36,.6,1.36,1.36V59.83c0,.76-.6,1.36-1.36,1.36H1.36Zm12.23-16.99L30.59,16.99l16.99,27.19H13.59v.02Z"/>
        </g>
      </g>
    </g>
  </g>
</svg>
